Coordinates
version=1
nRows=38
nColumns=12
inDegrees=yes

Units are S.I. units (second, meters, Newtons, ...)
Angles are in degrees

endheader
time	SC_y	SC_z	SC_x	AC_y	AC_z	AC_x	GH_y	GH_z	GH_yy	EL_x	PS_y
       0.0              -33.03          9.544          36.84          33.85          7.116          8.142          -92.6          33.22         -175.3          108.5          79.41
  0.001079              -33.03          9.546          36.84          33.85          7.114          8.142         -92.58          33.21         -175.3          108.5          79.41
  0.002158              -33.03          9.548          36.84          33.85          7.111          8.141         -92.56           33.2         -175.2          108.5           79.4
  0.003237              -33.03           9.55          36.84          33.85          7.107           8.14         -92.54          33.19         -175.2          108.5          79.39
  0.004315              -33.02          9.552          36.83          33.85          7.104          8.139         -92.51          33.19         -175.2          108.5          79.38
  0.005394              -33.02          9.554          36.83          33.85          7.101          8.138         -92.49          33.18         -175.2          108.5          79.37
  0.006473              -33.02          9.557          36.83          33.85          7.097          8.137         -92.46          33.17         -175.2          108.4          79.36
  0.007552              -33.02           9.56          36.83          33.85          7.093          8.136         -92.43          33.16         -175.2          108.4          79.35
  0.008631              -33.01          9.562          36.83          33.85          7.088          8.135          -92.4          33.14         -175.2          108.4          79.34
   0.00971              -33.01          9.566          36.83          33.85          7.084          8.134         -92.36          33.13         -175.1          108.4          79.33
   0.01079              -33.01          9.569          36.83          33.85          7.079          8.132         -92.33          33.12         -175.1          108.3          79.32
   0.01187               -33.0          9.573          36.82          33.85          7.073          8.131         -92.29           33.1         -175.1          108.3          79.31
   0.01295               -33.0          9.576          36.82          33.85          7.067          8.129         -92.25          33.09         -175.1          108.3          79.29
   0.01403              -32.99          9.581          36.82          33.85          7.061          8.128          -92.2          33.07         -175.0          108.3          79.28
    0.0151              -32.99          9.585          36.82          33.85          7.054          8.126         -92.15          33.05         -175.0          108.2          79.26
   0.01618              -32.98           9.59          36.82          33.85          7.047          8.124          -92.1          33.03         -175.0          108.2          79.24
   0.01726              -32.98          9.595          36.81          33.84          7.039          8.122         -92.04          33.01         -175.0          108.1          79.22
   0.01834              -32.97          9.601          36.81          33.84           7.03           8.12         -91.98          32.99         -174.9          108.1           79.2
   0.01942              -32.96          9.608          36.81          33.84           7.02          8.117         -91.91          32.96         -174.9          108.0          79.17
    0.0205              -32.96          9.615          36.81          33.84           7.01          8.114         -91.83          32.93         -174.8          108.0          79.15
   0.02158              -32.95          9.622           36.8          33.84          6.998          8.111         -91.75           32.9         -174.8          107.9          79.12
   0.02266              -32.94          9.631           36.8          33.84          6.986          8.108         -91.66          32.87         -174.8          107.9          79.09
   0.02374              -32.93           9.64          36.79          33.84          6.972          8.104         -91.56          32.83         -174.7          107.8          79.05
   0.02481              -32.92           9.65          36.79          33.84          6.956            8.1         -91.44          32.79         -174.6          107.7          79.01
   0.02589              -32.91          9.662          36.78          33.84          6.939          8.096         -91.32          32.74         -174.6          107.6          78.97
   0.02697              -32.89          9.674          36.78          33.84           6.92          8.091         -91.18          32.69         -174.5          107.5          78.92
   0.02805              -32.88          9.689          36.77          33.83          6.898          8.085         -91.02          32.64         -174.4          107.4          78.87
   0.02913              -32.86          9.705          36.76          33.83          6.874          8.078         -90.85          32.57         -174.3          107.3          78.81
   0.03021              -32.84          9.723          36.75          33.83          6.846          8.071         -90.65           32.5         -174.2          107.2          78.74
   0.03129              -32.82          9.744          36.75          33.83          6.815          8.063         -90.43          32.41         -174.1          107.0          78.66
   0.03237              -32.79          9.767          36.73          33.82           6.78          8.054         -90.17          32.32         -174.0          106.8          78.58
   0.03344              -32.76          9.794          36.72          33.82          6.739          8.043         -89.88          32.21         -173.8          106.6          78.47
   0.03452              -32.73          9.826          36.71          33.82          6.692          8.031         -89.54          32.08         -173.6          106.4          78.36
    0.0356              -32.69          9.862          36.69          33.81          6.637          8.016         -89.14          31.94         -173.4          106.1          78.22
   0.03668              -32.64          9.904          36.67          33.81          6.573          7.999         -88.68          31.77         -173.1          105.8          78.06
   0.03776              -32.59          9.954          36.65           33.8          6.498          7.979         -88.14          31.57         -172.9          105.4          77.87
   0.03884              -32.53          10.01          36.62          33.79          6.408          7.956         -87.49          31.33         -172.5          104.9          77.65
   0.03992              -32.45          10.09          36.59          33.78          6.301          7.928         -86.71          31.04         -172.1          104.4          77.38
